<svg width="458" height="461" viewBox="0 0 458 461" fill="none" xmlns="http://www.w3.org/2000/svg">
<path fill-rule="evenodd" clip-rule="evenodd" d="M381.194 259H159.949H153.531V258.761C109.613 255.48 75 218.808 75 174.051C75 127.135 113.033 89.1021 159.949 89.1021C161.338 89.1021 162.718 89.1354 164.091 89.2012C177.849 37.8284 224.726 0 280.439 0C342.791 0 394.076 47.3813 400.254 108.103C433.361 116.576 457.837 146.608 457.837 182.357C457.837 224.56 423.726 258.796 381.571 258.999V259H381.194Z" fill="#F7F7F7"/>
<path fill-rule="evenodd" clip-rule="evenodd" d="M426.466 244.207C445.487 230.261 457.837 207.751 457.837 182.357C457.837 140.028 423.523 105.714 381.194 105.714C360.218 105.714 341.21 114.141 327.371 127.793C340.056 118.492 355.708 113 372.643 113C414.972 113 449.286 147.314 449.286 189.643C449.286 210.996 440.554 230.309 426.466 244.207Z" fill="#C4C4C4"/>
<path fill-rule="evenodd" clip-rule="evenodd" d="M248.379 236.564C203.656 218.976 172 175.404 172 124.439C172 57.9223 225.922 4 292.439 4C303.54 4 314.291 5.50202 324.499 8.31391C310.853 2.94735 295.99 0 280.439 0C213.922 0 160 53.9223 160 120.439C160 175.854 197.425 222.528 248.379 236.564Z" fill="#C4C4C4"/>
<path fill-rule="evenodd" clip-rule="evenodd" d="M166.68 258.737C122.218 256.017 87 219.096 87 173.949C87 129.299 121.448 92.6939 165.218 89.2628C163.475 89.1561 161.718 89.1021 159.949 89.1021C113.033 89.1021 75 127.135 75 174.051C75 220.967 113.033 259 159.949 259C162.215 259 164.459 258.911 166.68 258.737Z" fill="#C4C4C4"/>
<path d="M35 227C35 213.193 46.1929 202 60 202H332C345.807 202 357 213.193 357 227V425H35V227Z" fill="#3F4E7A"/>
<rect x="50" y="222" width="292" height="183" fill="#020221"/>
<path d="M137.192 274.32L89.96 314.496V322.128L137.912 362.88L143.096 356.832L98.312 318.816V317.664L142.376 280.512L137.192 274.32ZM226.012 256.752L158.476 383.328L166.252 386.064L233.356 260.208L226.012 256.752ZM253.488 362.88L301.584 322.128V314.352L254.496 274.32L249.312 280.512L293.376 317.664V318.816L248.448 356.832L253.488 362.88Z" fill="#635196"/>
<rect y="415" width="393" height="46" rx="15" fill="#7F9CF5"/>
<path d="M147 415H248V430C248 434.418 244.418 438 240 438H155C150.582 438 147 434.418 147 430V415Z" fill="#5F75B8"/>
</svg>
